<svg width="61" height="62" viewBox="0 0 61 62" fill="none" xmlns="http://www.w3.org/2000/svg">
<path d="M20.7201 1.62113L16.4542 3.22925L16.0885 12.3832L15.7229 21.537L25.5954 11.6409C30.9583 6.19808 35.3461 1.37373 35.3461 0.878927C35.3461 -0.605489 25.4735 -0.110684 20.7201 1.62113Z" fill="white"/>
<path d="M33.396 7.43516L27.5457 13.4965H41.4403H55.335L51.6785 9.66178C49.7283 7.55886 46.1937 4.83743 43.7561 3.60042L39.3683 1.25009L33.396 7.43516Z" fill="white"/>
<path d="M7.31322 10.5277C5.24121 13.0017 2.92543 16.4653 2.31601 18.1972C1.21907 21.0423 1.7066 22.0319 7.31322 27.5985L13.4074 33.9072V19.929C13.4074 12.3832 12.9198 6.07443 12.3104 6.07443C11.701 6.07443 9.50711 8.05365 7.31322 10.5277Z" fill="white"/>
<path d="M40.2214 16.9601C40.2214 17.4549 44.4873 22.2793 49.8502 27.5984C59.1133 36.9997 59.4789 37.1234 60.2102 34.0309C60.9415 30.8147 60.5759 27.4747 58.2601 19.929L57.0413 15.9705H48.6314C43.9998 15.9705 40.2214 16.3416 40.2214 16.9601Z" fill="white"/>
<path d="M24.2547 21.537C19.6232 24.0111 17.9168 29.825 19.9888 35.1442C21.9389 39.8448 25.1079 41.9478 30.227 41.9478C37.1743 41.9478 43.5122 33.165 40.4652 27.7221C39.4901 25.8666 39.2463 25.8666 37.9056 27.5984C34.1272 32.1754 27.058 28.588 28.5206 22.7741C29.3738 19.3104 28.7644 19.063 24.2547 21.537Z" fill="white"/>
<path d="M0 31.3095C0 34.8968 0.609415 39.5975 1.34071 41.8241L2.68142 45.6588H11.9445H21.3295L10.9695 35.1442C5.24097 29.3303 0.487532 24.6296 0.365649 24.6296C0.121883 24.6296 0 27.5985 0 31.3095Z" fill="white"/>
<path d="M46.3152 42.3189V56.9156L49.7279 54.4416C51.678 53.0809 54.6032 49.4935 56.1877 46.401L59.1129 40.7107L52.6531 34.2783L46.3152 27.7221V42.3189Z" fill="white"/>
<path d="M33.7617 50.3594C28.6426 55.5549 24.3767 60.3793 24.3767 60.8741C24.3767 62.2348 34.0055 61.8637 39.3683 60.3793L43.878 59.1422V49.9883C43.878 44.9166 43.7561 40.7107 43.5123 40.7107C43.3904 40.7107 39.0027 45.0403 33.7617 50.3594Z" fill="white"/>
<path d="M8.04418 51.9677C9.99431 54.0706 13.7727 56.9157 16.3322 58.2764L21.0857 60.7505L27.3017 54.4417L33.5177 48.1329H19.0136H4.3877L8.04418 51.9677Z" fill="white"/>
</svg>
